<svg xmlns="http://www.w3.org/2000/svg" viewBox="0 0 29.222 36.527">
    <defs>
        <style>
            .a {
                fill: #fff;
                fill-rule: evenodd;
            }
        </style>
    </defs>
    <path class="a"
        d="M14.641.945A14.622,14.622,0,0,0,.03,15.556v2.435a2.442,2.442,0,0,0,2.435,2.435V32.6c0,2.679,5.455,4.87,12.176,4.87s12.176-2.192,12.176-4.87V20.426a2.442,2.442,0,0,0,2.435-2.435V15.556A14.622,14.622,0,0,0,14.641.945ZM21.946,25.3v1.218a1.218,1.218,0,1,1-2.435,0V25.3a1.218,1.218,0,1,0-2.435,0v6.088a1.218,1.218,0,0,1-2.435,0v-4.87a1.218,1.218,0,1,0-2.435,0v1.218a2.435,2.435,0,1,1-4.87,0V25.3A2.442,2.442,0,0,1,4.9,22.861V18.478a21.669,21.669,0,0,0,9.741,1.948,21.669,21.669,0,0,0,9.741-1.948v4.383A2.442,2.442,0,0,1,21.946,25.3Zm-7.305-7.305c-4.091,0-7.6-1-9.034-2.435,1.437-1.437,4.943-2.435,9.034-2.435s7.6,1,9.034,2.435C22.238,16.993,18.732,17.991,14.641,17.991Zm0-7.305c-6.721,0-12.176,2.167-12.176,4.87a12.176,12.176,0,0,1,24.351,0C26.817,12.877,21.362,10.686,14.641,10.686Z"
        transform="translate(-0.03 -0.945)" />
</svg>