<svg xmlns="http://www.w3.org/2000/svg" viewBox="0 0 35.038 22.934">
    <defs>
        <style>
            .a {
                fill: #fff;
            }
        </style>
    </defs>
    <path class="a"
        d="M32.868,7.322c-.024-.027-.044-.054-.072-.08L31.568,6.057c1.018-.231,2.115-1.084,2.115-1.959,0-1.02-1.415-1.382-2.623-1.382-1.263,0-1.409.865-1.425,1.477L26.467,1.138A4.471,4.471,0,0,0,23.69,0H11.348A4.472,4.472,0,0,0,8.571,1.138L5.4,4.193c-.016-.611-.163-1.477-1.425-1.477-1.209,0-2.624.362-2.624,1.382,0,.875,1.1,1.728,2.115,1.959L2.243,7.242c-.028.026-.047.053-.072.08A6.878,6.878,0,0,0,0,12.038v4.49a4.1,4.1,0,0,0,1.124,2.816v1.741a1.878,1.878,0,0,0,1.9,1.849h2.3a1.876,1.876,0,0,0,1.9-1.849V20.64H27.815v.446a1.876,1.876,0,0,0,1.9,1.849h2.3a1.877,1.877,0,0,0,1.9-1.849V19.344a4.093,4.093,0,0,0,1.124-2.816v-4.49A6.87,6.87,0,0,0,32.868,7.322ZM9.735,2.5a3.168,3.168,0,0,1,1.613-.653H23.692A3.168,3.168,0,0,1,25.3,2.5l4.154,4.026H5.581Zm-8.31,8.863a1.969,1.969,0,0,1,1.934-2c1.068,0,4.557,2.048,4.557,3.154s-3.489.85-4.557.85A1.966,1.966,0,0,1,1.425,11.359Zm5.8,7.313H6.488l-2.185,0a4.154,4.154,0,0,1-1.337-.646,1.9,1.9,0,0,1-.362-.368,1.438,1.438,0,0,1-.2-.371,1.689,1.689,0,0,1,.29-1.474H6.42L8.905,18.67Zm15.657,0H12.158a2.026,2.026,0,0,1-2.025-2.024H24.906A2.025,2.025,0,0,1,22.881,18.673Zm.471-3.406H11.688c-1.216,0-2.2-1.5-2.2-3.347H25.554C25.554,13.769,24.567,15.267,23.352,15.267Zm9.287,2.025a1.449,1.449,0,0,1-.2.37,1.859,1.859,0,0,1-.362.368,4.119,4.119,0,0,1-1.337.646l-2.185,0H26.133l2.487-2.853h3.728A1.686,1.686,0,0,1,32.639,17.292Zm-.958-3.933c-1.067,0-4.556.255-4.556-.85s3.489-3.154,4.556-3.154a2,2,0,0,1,0,4Z" />
</svg>