<svg xmlns="http://www.w3.org/2000/svg" viewBox="0 0 34.551 29.615">
    <defs>
        <style>
            .a {
                fill: #fff;
            }
        </style>
    </defs>
    <path class="a"
        d="M21.16,1.2A1.011,1.011,0,0,1,21.972.021a1.01,1.01,0,0,1,1.175.813L25.3,12.482a1.009,1.009,0,0,1-.813,1.17h0a1.008,1.008,0,0,1-1.17-.813ZM4.9,7.837a.115.115,0,0,1,.031-.02,1.142,1.142,0,0,1,1.555.332.188.188,0,0,1,.02.031,1.147,1.147,0,0,1-.346,1.567,9.4,9.4,0,0,0-2.365,2.144A7.238,7.238,0,0,0,2.5,14.511a6.517,6.517,0,0,0-.205,1.775,6.36,6.36,0,0,0,.287,1.742A6.022,6.022,0,0,0,4.5,20.873,6.634,6.634,0,0,0,6.857,22.11a8.647,8.647,0,0,0,2.916.31,1.133,1.133,0,0,1,.706.2,1.152,1.152,0,0,1,.441.58,5.967,5.967,0,0,0,1.237,2.015,6.332,6.332,0,0,0,1.962,1.412,7.286,7.286,0,0,0,1.425.49,8.083,8.083,0,0,0,1.541.205,8.324,8.324,0,0,0,1.586-.1,8.1,8.1,0,0,0,1.53-.4,7.506,7.506,0,0,0,2.48-1.491,7.2,7.2,0,0,0,1.687-2.3,1.141,1.141,0,0,1,.433-.487,1.154,1.154,0,0,1,.63-.172A8.808,8.808,0,0,0,28.178,22,5.985,5.985,0,0,0,30.3,20.842a5.328,5.328,0,0,0,1.094-1.3,5.85,5.85,0,0,0,.666-1.618,6.794,6.794,0,0,0,.194-1.8,7.573,7.573,0,0,0-.281-1.857,8,8,0,0,0-1.316-2.653,8.167,8.167,0,0,0-2.2-2.012,1.148,1.148,0,1,1,1.212-1.95,10.366,10.366,0,0,1,4.518,6,9.757,9.757,0,0,1,.363,2.431,9.063,9.063,0,0,1-.259,2.378,8.231,8.231,0,0,1-.939,2.271A7.712,7.712,0,0,1,31.8,22.58a8.164,8.164,0,0,1-2.6,1.494,10.5,10.5,0,0,1-3.084.574,9.46,9.46,0,0,1-2.109,2.577,9.811,9.811,0,0,1-3.02,1.756,10.383,10.383,0,0,1-1.948.5,10.565,10.565,0,0,1-2.019.124,10.294,10.294,0,0,1-2-.264,9.7,9.7,0,0,1-1.867-.644A8.645,8.645,0,0,1,10.7,27,8.182,8.182,0,0,1,9.087,24.73,10.45,10.45,0,0,1,5.854,24.2a8.816,8.816,0,0,1-2.82-1.559A8.343,8.343,0,0,1,.391,18.712,8.518,8.518,0,0,1,0,16.351a8.828,8.828,0,0,1,.278-2.406,9.52,9.52,0,0,1,1.659-3.4A11.613,11.613,0,0,1,4.9,7.837ZM11.623.842a1.012,1.012,0,0,1,.413-.656L12.05.178a1.007,1.007,0,0,1,.728-.166L12.8.018a1.019,1.019,0,0,1,.644.411,1.006,1.006,0,0,1,.174.743L11.569,13.034a1.013,1.013,0,0,1-.413.656l-.014.008a1.01,1.01,0,0,1-1.4-.25l-.008-.014a1.017,1.017,0,0,1-.163-.743Zm4.6,2.906a1.009,1.009,0,1,1,2.019-.034L18.5,18.388a1.009,1.009,0,1,1-2.019.034Z" />
</svg>