<svg xmlns="http://www.w3.org/2000/svg" viewBox="0 0 28.971 28.971">
    <defs>
        <style>
            .a {
                fill: #fff;
            }
        </style>
    </defs>
    <path class="a"
        d="M9.187,13.268q1.556.877,4.414,2.164t5.277,2.49a28.108,28.108,0,0,1,3.975,2.334,28.234,28.234,0,0,1,6.139,5.63L25.37,29.507a31.03,31.03,0,0,0-3.9-6.111Q16.2,27.725,10.318,24.471A22.339,22.339,0,0,1,6.5,21.883a25.539,25.539,0,0,1-2.73-2.659,10.641,10.641,0,0,1-1.825-3.169q-.736-1.91-1.118-3.239A19.936,19.936,0,0,1,.261,9.01Q.077,6.534.048,5.063T.02.536A9.759,9.759,0,0,0,3.1,2.828,13.349,13.349,0,0,0,6.725,3.974q1.839.3,3.834.453t3.933.453a21.652,21.652,0,0,1,3.72.905,9.9,9.9,0,0,1,3.4,2.051,12.856,12.856,0,0,1,2.773,3.65,9.683,9.683,0,0,1,.99,4.442,8.681,8.681,0,0,1-.538,3.056q-2.263-1.358-5.956-3.169t-6.818-3.4a34.1,34.1,0,0,1-4.8-2.829,15.691,15.691,0,0,1-3.056-3.14q-.424-.538-.509-.34a11.982,11.982,0,0,0-.057,1.669q0,.877,1.443,2.235A40.368,40.368,0,0,0,9.187,13.268Z"
        transform="translate(-0.02 -0.536)" />
</svg>