<svg xmlns="http://www.w3.org/2000/svg" viewBox="0 0 33.811 30.884">
    <defs>
        <style>
            .a {
                fill: #fff;
            }
        </style>
    </defs>
    <path class="a"
        d="M24.583,21.118h3.381v3.432H24.583Zm0-6.863h3.381v3.432H24.583ZM34.727,7.392H17.821V.529H.915V31.412H34.727ZM7.677,27.981H4.3V24.549H7.677Zm0-6.863H4.3V17.686H7.677Zm0-6.863H4.3V10.823H7.677Zm0-6.863H4.3V3.96H7.677ZM14.44,27.981H11.059V24.549H14.44Zm0-6.863H11.059V17.686H14.44Zm0-6.863H11.059V10.823H14.44Zm0-6.863H11.059V3.96H14.44ZM31.345,27.981H17.821V24.549H21.2V21.118H17.821V17.686H21.2V14.255H17.821V10.823H31.345Z"
        transform="translate(-0.915 -0.529)" />
</svg>