<svg xmlns="http://www.w3.org/2000/svg" viewBox="0 0 33.077 33.077">
    <defs>
        <style>
            .a {
                fill: #fff;
            }
        </style>
    </defs>
    <path class="a" d="M28.962,37.558V28.375H25.343a3.193,3.193,0,0,1-6.085,0h-4.6v9.183Z"
        transform="translate(-10.211 -19.764)" />
    <path class="a"
        d="M16.1,71.889h7.952a1.257,1.257,0,0,1-.783-1.162V69.471h1.657l4.036-4.036v-.413h-14.3v4.448h2.224v1.255A1.257,1.257,0,0,1,16.1,71.889Z"
        transform="translate(-10.21 -45.291)" />
    <path class="a" d="M36.96,23.556A1.255,1.255,0,1,0,35.7,22.3,1.255,1.255,0,0,0,36.96,23.556Z"
        transform="translate(-24.87 -14.659)" />
    <path class="a" d="M74.18,21.988h-6v8.159l1.553-.388v1.672l-1.553.706v2.129l3.491-1.588v-3.4l2.51-.628Z"
        transform="translate(-47.489 -15.316)" />
    <path class="a" d="M94.341,21.988H98.79v6.387H94.341Z" transform="translate(-65.712 -15.316)" />
    <path class="a" d="M19.879,6.673a3.193,3.193,0,0,1,6.085,0h3.619V4.543L28.069,0H17.775L15.551,6.673Z"
        transform="translate(-10.832)" />
    <path class="a" d="M18.333,94.034H1.4A3.192,3.192,0,0,0,0,96.675v1.9H19.732v-1.9A3.192,3.192,0,0,0,18.333,94.034Z"
        transform="translate(0 -65.498)" />
</svg>