<svg xmlns="http://www.w3.org/2000/svg" viewBox="0 0 30.808 33.178">
    <defs>
        <style>
            .a {
                fill: #fff;
            }
        </style>
    </defs>
    <g transform="translate(0)">
        <path class="a" d="M70.722,66.005H63.612v-2.37h7.109Z" transform="translate(-44.653 -44.677)" />
        <path class="a" d="M86.4,97.355h-7.11v-2.37H86.4Z" transform="translate(-55.588 -66.548)" />
        <path class="a" d="M78.559,81.681H71.45v-2.37h7.11Z" transform="translate(-50.121 -55.612)" />
        <path class="a"
            d="M16.318,22.264a5.8,5.8,0,0,0-2.849-4.945l8.77-15.2L20.189.935,11.211,16.488A6.753,6.753,0,0,0,5,18.269C.562,22.548.906,32.551.923,32.975a1.185,1.185,0,0,0,1.185,1.138H19.871a1.185,1.185,0,0,0,.711-2.133C16.387,28.833,16.318,22.328,16.318,22.264Zm-6.011-3.558a3.685,3.685,0,0,1,3.642,3.558c0,.045,0,.246.02.556L6.979,19.71a4.5,4.5,0,0,1,3.328-1Zm4.171,13.038a6.161,6.161,0,0,1-1.718-3.555H10.39a7.7,7.7,0,0,0,1.147,3.555H8.9A19.689,19.689,0,0,1,8.02,27H5.65a20.546,20.546,0,0,0,.788,4.74H3.281c.037-2.175.344-6.981,2.136-10.135l8.926,3.969a15.433,15.433,0,0,0,2.678,6.165Z"
            transform="translate(-0.91 -0.935)" />
    </g>
</svg>